<svg xmlns="http://www.w3.org/2000/svg" xmlns:xlink="http://www.w3.org/1999/xlink" viewBox="0 0 27 33.75" version="1.1" x="0px" y="0px"><title></title><desc></desc><g stroke="none" stroke-width="1" fill="none" fill-rule="evenodd"><g transform="translate(-425.000000, -343.000000)" fill="#000000"><path d="M441.277487,356.036268 L451.274287,346.040535 C451.974021,345.340801 451.969754,344.219735 451.274287,343.523201 C450.577754,342.823468 449.456687,342.832001 448.761221,343.523201 L438.765487,353.518935 L428.769754,343.523201 C428.070021,342.823468 426.948954,342.827735 426.256687,343.523201 C425.556954,344.224001 425.561221,345.344001 426.256687,346.040535 L436.253487,356.036268 L426.256687,366.027735 C425.556954,366.727468 425.561221,367.848535 426.256687,368.544001 C426.953221,369.244801 428.074287,369.240535 428.769754,368.544001 L438.765487,358.548268 L448.761221,368.544001 C449.460954,369.244801 450.582021,369.240535 451.274287,368.544001 C451.974021,367.844268 451.969754,366.723201 451.274287,366.027735 L441.277487,356.036268 Z"/></g></g><text x="0" y="42" fill="#000000" font-size="5px" font-weight="bold" font-family="'Helvetica Neue', Helvetica, Arial-Unicode, Arial, Sans-serif"></text><text x="0" y="47" fill="#000000" font-size="5px" font-weight="bold" font-family="'Helvetica Neue', Helvetica, Arial-Unicode, Arial, Sans-serif">from the Noun Project</text></svg>