<svg xmlns="http://www.w3.org/2000/svg" data-name="Layer 1" viewBox="0 0 24 30" x="0px" y="0px"><title>Instagram</title><path d="M20.44,0H3.56A3.57,3.57,0,0,0,0,3.56V20.44A3.57,3.57,0,0,0,3.56,24H20.44A3.57,3.57,0,0,0,24,20.44V3.56A3.57,3.57,0,0,0,20.44,0ZM22,20.44A1.56,1.56,0,0,1,20.44,22H3.56A1.56,1.56,0,0,1,2,20.44V3.56A1.56,1.56,0,0,1,3.56,2H20.44A1.56,1.56,0,0,1,22,3.56Z"/><path d="M12,6a6,6,0,1,0,6,6A6,6,0,0,0,12,6Zm0,10a4,4,0,1,1,4-4A4,4,0,0,1,12,16Z"/><circle cx="18.5" cy="5.5" r="1.5"/><text x="0" y="39" fill="#000000" font-size="5px" font-weight="bold" font-family="'Helvetica Neue', Helvetica, Arial-Unicode, Arial, Sans-serif">Created by Mas Dhimas</text><text x="0" y="44" fill="#000000" font-size="5px" font-weight="bold" font-family="'Helvetica Neue', Helvetica, Arial-Unicode, Arial, Sans-serif">from the Noun Project</text></svg>