<svg xmlns:x="http://ns.adobe.com/Extensibility/1.0/" xmlns:i="http://ns.adobe.com/AdobeIllustrator/10.0/" xmlns:graph="http://ns.adobe.com/Graphs/1.0/" xmlns="http://www.w3.org/2000/svg" xmlns:xlink="http://www.w3.org/1999/xlink" version="1.1" x="0px" y="0px" viewBox="0 0 100 125" enable-background="new 0 0 100 100" xml:space="preserve"><metadata><sfw xmlns="http://ns.adobe.com/SaveForWeb/1.0/"><slices/><sliceSourceBounds height="59.304" width="59.007" x="450.122" y="250.849" bottomLeftOrigin="true"/></sfw></metadata><g><path d="M79.629,67.475c0-0.646-0.04-2.956-0.101-6.175c-0.078-4.175-0.19-9.838-0.292-15.151c0-0.001,0-0.002,0-0.004   c0-0.002-0.001-0.004-0.001-0.006c-0.016-0.816-0.031-1.625-0.046-2.417c-0.112-5.951-0.203-11.078-0.202-12.47   c0-0.11,0-0.194,0.001-0.242c0.005-0.262,0.008-0.516,0.008-0.764c-0.003-1.723-0.114-3.168-0.463-4.446   c-0.261-0.955-0.673-1.827-1.289-2.553c-0.459-0.543-1.025-0.991-1.657-1.333c-0.95-0.513-2.03-0.803-3.262-0.979   c-1.233-0.175-2.632-0.236-4.259-0.237c-0.119,0-0.239,0-0.36,0.001c-1.083,0.006-2.106,0.009-3.073,0.009   c-5.355,0-8.98-0.083-11.466-0.166c-2.492-0.082-3.813-0.166-4.709-0.167h-0.063c-0.48,0.002-0.964,0.003-1.451,0.003   c-2.653,0-5.389-0.03-8.132-0.03c-2.85,0-5.707,0.033-8.492,0.168c-2.216,0.107-4.016,0.581-5.45,1.445   c-1.074,0.645-1.915,1.511-2.515,2.489c-0.905,1.472-1.3,3.145-1.5,4.879c-0.196,1.739-0.193,3.566-0.194,5.415   c0,8.818-0.004,14.814-0.004,19.965c0,2.575,0.001,4.939,0.004,7.338v0.043c0,1.042-0.038,2.398-0.038,3.855   c0,1.584,0.044,3.289,0.244,4.903c0.208,1.615,0.541,3.142,1.285,4.441c0.55,0.948,1.242,1.727,2.021,2.329   c1.171,0.908,2.51,1.412,3.851,1.69c1.345,0.278,2.708,0.341,4.028,0.342c1.448-0.001,2.847-0.078,4.078-0.077   c0.124,0,0.246,0.001,0.366,0.002c0.977,0.014,2.024,0.02,3.131,0.02c7.946,0,18.999-0.298,28.78-0.298   c2.282-0.002,4.086-0.161,5.601-0.586c1.132-0.318,2.114-0.808,2.903-1.512c0.592-0.525,1.058-1.16,1.402-1.851   c0.519-1.04,0.787-2.188,0.968-3.467c0.179-1.28,0.265-2.704,0.349-4.327c0.001-0.015-0.002-0.027-0.002-0.042   C79.625,67.501,79.629,67.488,79.629,67.475z M23.902,30.185c0.09-1.026,0.246-1.947,0.493-2.725   c0.378-1.175,0.907-1.995,1.775-2.625c0.872-0.626,2.2-1.102,4.301-1.205c2.706-0.132,5.515-0.165,8.34-0.165   c2.72,0,5.455,0.03,8.132,0.03c0.491,0,0.98-0.001,1.467-0.003h0.011l0.037,0c0.7-0.001,2.096,0.082,4.605,0.166   c2.518,0.083,6.182,0.167,11.569,0.167c0.973,0,2.002-0.003,3.091-0.009c0.116-0.001,0.229-0.001,0.343-0.001   c1.832-0.001,3.277,0.088,4.347,0.292c0.805,0.152,1.385,0.364,1.794,0.607c0.31,0.184,0.53,0.38,0.725,0.628   c0.287,0.37,0.527,0.894,0.696,1.702c0.168,0.803,0.251,1.869,0.25,3.2c0,0.228-0.003,0.462-0.007,0.706   c-0.002,0.083-0.002,0.18-0.002,0.3c0,1.53,0.099,7.04,0.219,13.337c-3.925,0.006-6.62,0.025-9.003,0.025   c-1.158,0-2.255-0.007-3.377-0.02c-0.485-1.135-1.106-2.225-1.911-3.222c-1.171-1.448-2.714-2.684-4.63-3.537   c-1.917-0.855-4.194-1.329-6.839-1.328h-0.064h-0.02h-0.007c-4.093-0.01-7.658,1.48-10.116,4.163   c-0.938,1.019-1.708,2.199-2.305,3.509c-4.426,0-8.585-0.012-14.04-0.229c0.001-2.714,0.001-5.74,0.001-9.206   C23.778,33.103,23.781,31.553,23.902,30.185z M42.417,42.781c1.848-1.997,4.454-3.146,7.821-3.156h0.011   c0.003,0,0.006-0.001,0.01-0.001c0.003,0,0.007,0.001,0.01,0.001h0.061c2.277,0,4.101,0.403,5.568,1.057   c2.195,0.985,3.647,2.531,4.619,4.417c0.238,0.464,0.444,0.951,0.62,1.451c0.017,0.061,0.029,0.122,0.053,0.179   c0.495,1.479,0.737,3.076,0.749,4.64v0.085c-0.001,2.731-1.03,5.371-2.949,7.324c-1.924,1.948-4.73,3.26-8.52,3.267   c-2.378,0.008-5.22-0.854-7.356-2.59c-1.073-0.867-1.979-1.941-2.623-3.245c-0.643-1.306-1.033-2.848-1.035-4.698   C39.458,47.731,40.575,44.784,42.417,42.781z M75.457,74.077c-0.202,0.365-0.425,0.635-0.718,0.876   c-0.438,0.356-1.083,0.668-2.118,0.89c-1.029,0.222-2.421,0.339-4.217,0.338c-9.838,0-20.904,0.297-28.78,0.297   c-1.096,0-2.13-0.006-3.088-0.019c-0.135-0.002-0.271-0.003-0.408-0.003c-1.353,0.001-2.743,0.078-4.078,0.077   c-1.619,0.003-3.145-0.12-4.359-0.536c-0.609-0.207-1.142-0.48-1.609-0.842c-0.467-0.363-0.876-0.815-1.235-1.432   c-0.395-0.66-0.72-1.86-0.887-3.26c-0.175-1.4-0.221-2.996-0.22-4.519c0-1.404,0.038-2.743,0.038-3.855v-0.045v-0.002   c-0.003-2.396-0.004-4.759-0.004-7.334c0-2.314,0.001-4.803,0.001-7.639c5.031,0.198,8.988,0.224,13.018,0.227   c-0.295,1.325-0.458,2.731-0.457,4.215c-0.001,2.296,0.497,4.339,1.357,6.078c1.291,2.614,3.368,4.516,5.655,5.747   c2.292,1.233,4.801,1.824,7.119,1.826c4.526,0.008,8.232-1.634,10.744-4.2c2.516-2.562,3.843-5.997,3.843-9.509l-0.001-0.105   v-0.003c-0.01-1.19-0.133-2.412-0.378-3.623c0.793,0.006,1.585,0.009,2.408,0.009c2.41,0,5.117-0.019,9.062-0.025   c0.015,0.735,0.028,1.472,0.043,2.209c0.08,4.138,0.16,8.232,0.221,11.442c0.06,3.147,0.099,5.458,0.101,6.075   c-0.098,1.883-0.202,3.424-0.413,4.6C75.94,72.923,75.724,73.594,75.457,74.077z"/><path d="M46.45,58.114c1.331,0.714,2.77,1.055,4.126,1.057c2.574,0.008,4.753-0.941,6.223-2.448   c1.475-1.503,2.249-3.513,2.249-5.56l-0.001-0.053v-0.009c-0.018-1.926-0.51-4.032-1.892-5.749   c-0.689-0.853-1.605-1.586-2.729-2.085c-1.123-0.501-2.438-0.768-3.929-0.768h-0.023H50.45h-0.005c-0.001,0-0.002,0-0.003,0   c-2.339-0.008-4.452,0.862-5.897,2.445c-1.453,1.579-2.204,3.776-2.201,6.247c-0.001,1.322,0.288,2.525,0.796,3.55   C43.902,56.286,45.125,57.401,46.45,58.114z M46.841,47.057c0.837-0.899,1.994-1.428,3.609-1.438v0   c0.004,0,0.008-0.001,0.012-0.001c0.005,0,0.01,0.001,0.015,0.001h0.021c1.123,0,1.984,0.198,2.659,0.498   c1.005,0.454,1.644,1.134,2.099,2.009c0.449,0.871,0.667,1.946,0.674,3v0.038c-0.001,1.267-0.478,2.48-1.355,3.375   c-0.883,0.889-2.161,1.508-3.998,1.515c-1.096,0.008-2.463-0.408-3.444-1.212c-0.495-0.401-0.904-0.888-1.195-1.478   c-0.291-0.592-0.472-1.292-0.474-2.17C45.466,49.331,46.01,47.961,46.841,47.057z"/><path d="M60.25,27.819c-0.021,0.042-0.045,0.083-0.063,0.126c-0.02,0.05-0.033,0.104-0.048,0.156   c-0.014,0.045-0.028,0.09-0.037,0.137c-0.011,0.054-0.013,0.11-0.017,0.166c-0.004,0.042-0.013,0.081-0.013,0.123   c0,0.01,0.003,0.019,0.003,0.028c0,0.01-0.002,0.02-0.002,0.029l0.305,8.296c0.03,0.842,0.725,1.507,1.566,1.502l9.186-0.054   c0.856-0.005,1.55-0.703,1.55-1.559v-8.509c0-0.422-0.176-0.834-0.48-1.126c-0.306-0.292-0.725-0.45-1.146-0.431   c-0.001,0-0.376,0.017-0.997,0.042c-1.857,0.075-5.916,0.224-8.425,0.224c-0.01,0-0.019,0.002-0.028,0.003   c-0.01,0-0.02-0.002-0.029-0.002c-0.045,0.001-0.086,0.013-0.129,0.018c-0.053,0.006-0.104,0.01-0.155,0.021   c-0.052,0.012-0.1,0.03-0.148,0.046c-0.048,0.016-0.096,0.029-0.142,0.05c-0.048,0.021-0.091,0.048-0.136,0.074   c-0.043,0.024-0.086,0.046-0.126,0.074c-0.042,0.03-0.08,0.064-0.119,0.098c-0.036,0.032-0.074,0.061-0.107,0.096   c-0.036,0.037-0.066,0.079-0.099,0.12c-0.029,0.038-0.061,0.073-0.087,0.114C60.297,27.724,60.273,27.772,60.25,27.819z    M63.438,35.255l-0.191-5.184c2.159-0.035,4.698-0.124,6.315-0.187v5.335L63.438,35.255z"/></g><text x="0" y="115" fill="#000000" font-size="5px" font-weight="bold" font-family="'Helvetica Neue', Helvetica, Arial-Unicode, Arial, Sans-serif"></text><text x="0" y="120" fill="#000000" font-size="5px" font-weight="bold" font-family="'Helvetica Neue', Helvetica, Arial-Unicode, Arial, Sans-serif"></text></svg>